<?xml version="1.0" standalone="no"?>
<!DOCTYPE svg PUBLIC "-//W3C//DTD SVG 20010904//EN"
 "http://www.w3.org/TR/2001/REC-SVG-20010904/DTD/svg10.dtd">
<svg version="1.0" xmlns="http://www.w3.org/2000/svg"
 width="597.000000pt" height="597.000000pt" viewBox="0 0 597.000000 597.000000"
 preserveAspectRatio="xMidYMid meet">
<metadata>
Created by potrace 1.16, written by Peter Selinger 2001-2019
</metadata>
<g transform="translate(0.000000,597.000000) scale(0.100000,-0.100000)"
fill="#000000" stroke="none">
<path d="M2900 4748 c-187 -95 -541 -224 -855 -313 -71 -21 -132 -39 -134 -41
-2 -2 13 -28 34 -59 76 -115 124 -259 140 -416 8 -86 -10 -251 -39 -347 -13
-43 -40 -133 -60 -202 -80 -268 -57 -377 108 -495 35 -24 168 -99 297 -166
129 -67 240 -126 247 -131 9 -8 12 133 12 698 0 685 -1 710 -20 741 -27 45
-84 62 -133 38 -37 -17 -67 -65 -67 -107 0 -34 25 -65 71 -89 61 -30 71 -84
23 -115 -54 -36 -179 44 -203 131 -46 166 55 309 219 309 105 0 191 -60 219
-153 8 -27 11 -254 11 -782 l0 -744 80 -43 80 -43 2 787 3 788 28 16 c24 13
30 13 55 0 l27 -16 3 -792 c1 -436 4 -792 7 -792 3 0 39 24 80 52 l76 52 -1
752 c-1 737 -1 753 19 792 38 75 128 132 208 132 39 0 107 -24 139 -49 101
-80 118 -223 36 -313 -68 -75 -148 -99 -178 -53 -23 35 -7 68 45 95 47 23 61
45 61 93 0 41 -28 80 -69 97 -39 16 -76 6 -112 -30 l-29 -28 0 -705 0 -704
253 127 c274 137 324 167 380 229 67 75 82 114 82 221 -1 91 -3 100 -53 223
-65 158 -91 262 -99 392 -10 179 37 353 143 520 30 49 53 89 52 90 -2 0 -63
16 -136 34 -241 58 -535 167 -833 308 l-124 59 -95 -48z m568 -310 c15 -15 15
-61 0 -76 -9 -9 -129 -12 -477 -12 -418 0 -466 2 -483 17 -22 20 -23 41 -1 65
15 17 43 18 483 18 349 0 469 -3 478 -12z m-166 -150 c32 -25 23 -82 -15 -92
-12 -3 -150 -6 -307 -6 -310 0 -330 3 -330 55 0 52 19 55 340 55 222 0 300 -3
312 -12z"/>
<path d="M1838 2344 c-41 -22 -53 -51 -58 -149 l-5 -90 -80 0 -80 0 -3 73 c-2
46 2 79 9 88 10 12 1 14 -52 14 -49 0 -60 -3 -51 -12 8 -8 12 -67 12 -201 l0
-189 -29 -29 -29 -29 37 0 c36 0 62 18 87 60 5 8 11 58 14 110 l5 95 80 0 80
0 3 -75 c2 -62 0 -77 -14 -87 -15 -11 -6 -13 57 -12 41 1 67 3 58 6 -25 6 -29
33 -28 178 0 165 10 223 39 247 l22 18 -23 0 c-13 -1 -36 -7 -51 -16z"/>
<path d="M3920 2300 c-12 -8 -9 -10 13 -10 32 0 77 -42 77 -71 0 -31 -109
-273 -131 -291 -21 -18 -20 -18 27 -18 33 0 44 3 35 9 -12 8 -12 16 3 55 l18
46 63 0 63 0 22 -54 c27 -67 83 -134 127 -152 18 -8 52 -14 75 -13 l43 0 -41
19 c-61 27 -99 89 -184 304 -54 135 -97 186 -156 186 -21 0 -46 -5 -54 -10z"/>
<path d="M4250 2288 c38 -26 95 -112 110 -168 5 -19 10 -70 10 -112 0 -63 -3
-79 -17 -87 -14 -8 1 -10 56 -11 65 0 72 2 57 13 -16 12 -18 25 -14 103 3 74
10 100 36 155 18 37 48 81 67 98 41 35 35 40 -12 11 -32 -19 -75 -77 -94 -127
-10 -26 -10 -26 -42 28 -38 62 -96 107 -152 116 l-40 6 35 -25z"/>
<path d="M2154 2280 c-27 -11 -64 -57 -63 -79 0 -12 2 -11 8 4 35 85 159 79
197 -10 19 -46 18 -148 -2 -191 -35 -74 -139 -104 -202 -58 -67 50 -91 192
-46 282 27 54 10 56 -45 6 -47 -42 -65 -89 -59 -155 6 -63 40 -112 101 -145
91 -49 241 -31 304 37 42 46 54 92 47 178 -6 74 -5 79 17 95 16 11 44 16 91
16 l68 0 0 -165 c0 -146 -2 -165 -17 -174 -13 -8 1 -10 57 -10 41 0 68 3 60 6
-27 11 -30 26 -30 186 l0 157 46 0 c25 0 54 -5 65 -10 16 -9 19 -7 19 12 l0
23 -172 -5 c-95 -3 -181 -9 -191 -14 -9 -4 -20 -19 -23 -32 -3 -13 -8 -24 -11
-24 -2 0 -21 14 -42 30 -56 45 -126 61 -177 40z"/>
<path d="M2912 2283 c-83 -3 -91 -5 -77 -19 12 -12 15 -43 15 -157 0 -157 -4
-184 -29 -190 -9 -3 52 -5 135 -6 149 -1 152 -1 158 22 12 44 7 49 -25 23 -26
-23 -40 -26 -100 -26 l-69 0 0 76 0 77 70 -5 c69 -5 70 -5 70 19 0 20 -3 24
-17 17 -10 -4 -42 -10 -70 -12 l-53 -4 0 81 c0 80 0 81 26 81 14 0 34 -5 45
-10 16 -9 19 -7 19 15 0 14 -1 24 -2 23 -2 -1 -45 -4 -96 -5z"/>
<path d="M3188 2268 c8 -8 12 -62 12 -175 0 -142 -2 -164 -16 -170 -11 -4 1
-12 37 -23 30 -9 87 -33 127 -54 143 -72 244 -79 301 -21 l26 27 -25 -8 c-57
-17 -224 9 -342 55 l-28 11 0 173 c0 121 4 177 12 185 9 9 -2 12 -52 12 -50 0
-61 -3 -52 -12z"/>
<path d="M3548 2274 c14 -7 18 -314 3 -314 -5 0 -18 15 -30 33 -15 23 -21 27
-21 14 0 -11 15 -34 33 -52 66 -66 225 -68 289 -5 50 50 32 136 -34 159 -30
11 -30 12 -14 30 27 29 18 89 -17 115 -22 16 -45 21 -125 23 -53 2 -91 0 -84
-3z m140 -30 c29 -20 31 -85 2 -114 -20 -20 -20 -20 -1 -20 11 0 32 -10 47
-23 21 -19 27 -32 27 -67 0 -54 -35 -90 -89 -90 l-34 0 0 165 c0 176 2 182 48
149z"/>
</g>
</svg>
